<mxfile host="app.diagrams.net" modified="2023-11-07T08:07:34.233Z" agent="Mozilla/5.0 (Macintosh; Intel Mac OS X 10_15_7) AppleWebKit/537.36 (KHTML, like Gecko) Chrome/114.0.0.0 Safari/537.36" etag="iKGyAO6lMBtdkKP8UNJ5" version="22.0.8" type="github">
  <diagram name="第 1 页" id="ECYKDuq8ofSZ6pfcjwfA">
    <mxGraphModel dx="896" dy="1667" grid="1" gridSize="10" guides="1" tooltips="1" connect="1" arrows="1" fold="1" page="1" pageScale="1" pageWidth="827" pageHeight="1169" math="0" shadow="0">
      <root>
        <mxCell id="0" />
        <mxCell id="1" parent="0" />
        <mxCell id="UDzMC0Z9HXb_niioeU1D-3" style="edgeStyle=orthogonalEdgeStyle;rounded=0;orthogonalLoop=1;jettySize=auto;html=1;exitX=0.5;exitY=1;exitDx=0;exitDy=0;entryX=0.5;entryY=0;entryDx=0;entryDy=0;" edge="1" parent="1" source="UDzMC0Z9HXb_niioeU1D-1">
          <mxGeometry relative="1" as="geometry">
            <mxPoint x="350" y="200" as="targetPoint" />
          </mxGeometry>
        </mxCell>
        <mxCell id="UDzMC0Z9HXb_niioeU1D-1" value="接受到封禁请求" style="rounded=0;whiteSpace=wrap;html=1;" vertex="1" parent="1">
          <mxGeometry x="290" y="80" width="120" height="60" as="geometry" />
        </mxCell>
        <mxCell id="UDzMC0Z9HXb_niioeU1D-8" style="edgeStyle=orthogonalEdgeStyle;rounded=0;orthogonalLoop=1;jettySize=auto;html=1;exitX=0.5;exitY=1;exitDx=0;exitDy=0;entryX=0.5;entryY=0;entryDx=0;entryDy=0;" edge="1" parent="1" source="UDzMC0Z9HXb_niioeU1D-4" target="UDzMC0Z9HXb_niioeU1D-7">
          <mxGeometry relative="1" as="geometry" />
        </mxCell>
        <mxCell id="UDzMC0Z9HXb_niioeU1D-9" value="否" style="edgeLabel;html=1;align=center;verticalAlign=middle;resizable=0;points=[];" vertex="1" connectable="0" parent="UDzMC0Z9HXb_niioeU1D-8">
          <mxGeometry x="-0.3143" y="-2" relative="1" as="geometry">
            <mxPoint as="offset" />
          </mxGeometry>
        </mxCell>
        <mxCell id="UDzMC0Z9HXb_niioeU1D-4" value="是否全新数据" style="rhombus;whiteSpace=wrap;html=1;" vertex="1" parent="1">
          <mxGeometry x="310" y="200" width="80" height="70" as="geometry" />
        </mxCell>
        <mxCell id="UDzMC0Z9HXb_niioeU1D-15" style="edgeStyle=orthogonalEdgeStyle;rounded=0;orthogonalLoop=1;jettySize=auto;html=1;exitX=0.5;exitY=1;exitDx=0;exitDy=0;entryX=0.5;entryY=0;entryDx=0;entryDy=0;" edge="1" parent="1" source="UDzMC0Z9HXb_niioeU1D-7" target="UDzMC0Z9HXb_niioeU1D-14">
          <mxGeometry relative="1" as="geometry" />
        </mxCell>
        <mxCell id="UDzMC0Z9HXb_niioeU1D-7" value="更新老数据为新数据" style="rounded=1;whiteSpace=wrap;html=1;" vertex="1" parent="1">
          <mxGeometry x="290" y="340" width="120" height="60" as="geometry" />
        </mxCell>
        <mxCell id="UDzMC0Z9HXb_niioeU1D-19" style="edgeStyle=orthogonalEdgeStyle;rounded=0;orthogonalLoop=1;jettySize=auto;html=1;exitX=1;exitY=0.5;exitDx=0;exitDy=0;" edge="1" parent="1" source="UDzMC0Z9HXb_niioeU1D-10" target="UDzMC0Z9HXb_niioeU1D-13">
          <mxGeometry relative="1" as="geometry">
            <mxPoint x="630" y="235" as="targetPoint" />
          </mxGeometry>
        </mxCell>
        <mxCell id="UDzMC0Z9HXb_niioeU1D-10" value="请求业务接口" style="rounded=1;whiteSpace=wrap;html=1;" vertex="1" parent="1">
          <mxGeometry x="470" y="205" width="120" height="60" as="geometry" />
        </mxCell>
        <mxCell id="UDzMC0Z9HXb_niioeU1D-11" value="是" style="edgeStyle=orthogonalEdgeStyle;rounded=0;orthogonalLoop=1;jettySize=auto;html=1;exitX=1;exitY=0.5;exitDx=0;exitDy=0;entryX=-0.05;entryY=0.517;entryDx=0;entryDy=0;entryPerimeter=0;" edge="1" parent="1" source="UDzMC0Z9HXb_niioeU1D-4" target="UDzMC0Z9HXb_niioeU1D-10">
          <mxGeometry relative="1" as="geometry" />
        </mxCell>
        <mxCell id="UDzMC0Z9HXb_niioeU1D-13" value="是否站长" style="rhombus;whiteSpace=wrap;html=1;" vertex="1" parent="1">
          <mxGeometry x="650" y="197.5" width="80" height="75" as="geometry" />
        </mxCell>
        <mxCell id="UDzMC0Z9HXb_niioeU1D-14" value="结束" style="rounded=1;whiteSpace=wrap;html=1;fillColor=#f8cecc;strokeColor=#b85450;" vertex="1" parent="1">
          <mxGeometry x="290" y="460" width="120" height="60" as="geometry" />
        </mxCell>
        <mxCell id="UDzMC0Z9HXb_niioeU1D-17" style="edgeStyle=orthogonalEdgeStyle;rounded=0;orthogonalLoop=1;jettySize=auto;html=1;exitX=0.5;exitY=1;exitDx=0;exitDy=0;entryX=0.5;entryY=0;entryDx=0;entryDy=0;" edge="1" parent="1" source="UDzMC0Z9HXb_niioeU1D-16" target="UDzMC0Z9HXb_niioeU1D-1">
          <mxGeometry relative="1" as="geometry" />
        </mxCell>
        <mxCell id="UDzMC0Z9HXb_niioeU1D-16" value="开始" style="rounded=1;whiteSpace=wrap;html=1;fillColor=#f8cecc;strokeColor=#b85450;" vertex="1" parent="1">
          <mxGeometry x="290" y="-30" width="120" height="60" as="geometry" />
        </mxCell>
        <mxCell id="UDzMC0Z9HXb_niioeU1D-18" value="更新之后是不是也添加一条log" style="rounded=1;whiteSpace=wrap;html=1;" vertex="1" parent="1">
          <mxGeometry x="30" y="400" width="120" height="60" as="geometry" />
        </mxCell>
        <mxCell id="UDzMC0Z9HXb_niioeU1D-20" value="" style="rounded=1;whiteSpace=wrap;html=1;" vertex="1" parent="1">
          <mxGeometry x="50" y="265" width="120" height="60" as="geometry" />
        </mxCell>
        <mxCell id="UDzMC0Z9HXb_niioeU1D-21" value="" style="rhombus;whiteSpace=wrap;html=1;" vertex="1" parent="1">
          <mxGeometry x="80" y="90" width="80" height="80" as="geometry" />
        </mxCell>
        <mxCell id="UDzMC0Z9HXb_niioeU1D-23" value="是" style="edgeStyle=orthogonalEdgeStyle;rounded=0;orthogonalLoop=1;jettySize=auto;html=1;exitX=0.5;exitY=1;exitDx=0;exitDy=0;entryX=0.5;entryY=0;entryDx=0;entryDy=0;" edge="1" parent="1" source="UDzMC0Z9HXb_niioeU1D-13" target="UDzMC0Z9HXb_niioeU1D-24">
          <mxGeometry relative="1" as="geometry">
            <mxPoint x="689.2799999999997" y="336.81999999999994" as="targetPoint" />
          </mxGeometry>
        </mxCell>
        <mxCell id="UDzMC0Z9HXb_niioeU1D-26" style="edgeStyle=orthogonalEdgeStyle;rounded=0;orthogonalLoop=1;jettySize=auto;html=1;exitX=0.5;exitY=1;exitDx=0;exitDy=0;" edge="1" parent="1" source="UDzMC0Z9HXb_niioeU1D-24" target="UDzMC0Z9HXb_niioeU1D-25">
          <mxGeometry relative="1" as="geometry" />
        </mxCell>
        <mxCell id="UDzMC0Z9HXb_niioeU1D-27" value="withdraw or share" style="edgeLabel;html=1;align=center;verticalAlign=middle;resizable=0;points=[];" vertex="1" connectable="0" parent="UDzMC0Z9HXb_niioeU1D-26">
          <mxGeometry x="-0.0884" relative="1" as="geometry">
            <mxPoint as="offset" />
          </mxGeometry>
        </mxCell>
        <mxCell id="UDzMC0Z9HXb_niioeU1D-24" value="场景判断" style="rhombus;whiteSpace=wrap;html=1;" vertex="1" parent="1">
          <mxGeometry x="650" y="340" width="80" height="75" as="geometry" />
        </mxCell>
        <mxCell id="UDzMC0Z9HXb_niioeU1D-25" value="计算封禁金额" style="rounded=1;whiteSpace=wrap;html=1;" vertex="1" parent="1">
          <mxGeometry x="630" y="470" width="120" height="60" as="geometry" />
        </mxCell>
        <mxCell id="UDzMC0Z9HXb_niioeU1D-28" value="请求业务删除passport" style="rounded=1;whiteSpace=wrap;html=1;" vertex="1" parent="1">
          <mxGeometry x="850" y="347.5" width="120" height="60" as="geometry" />
        </mxCell>
        <mxCell id="UDzMC0Z9HXb_niioeU1D-31" value="forbid_login" style="edgeStyle=orthogonalEdgeStyle;rounded=0;orthogonalLoop=1;jettySize=auto;html=1;exitX=1;exitY=0.5;exitDx=0;exitDy=0;entryX=-0.029;entryY=0.498;entryDx=0;entryDy=0;entryPerimeter=0;" edge="1" parent="1" source="UDzMC0Z9HXb_niioeU1D-24" target="UDzMC0Z9HXb_niioeU1D-28">
          <mxGeometry relative="1" as="geometry" />
        </mxCell>
      </root>
    </mxGraphModel>
  </diagram>
</mxfile>
